# Blender v2.80 (sub 75) OBJ File: ''
# www.blender.org
mtllib gazManette.mtl
o Cylinder
v -0.682689 -0.877743 -1.000000
v 1.790013 3.207304 -0.500000
v -0.015983 -1.430466 -0.500000
v 1.790013 3.207304 0.500000
v -0.015983 -1.430466 0.500000
v 2.512188 2.729327 1.000000
v -0.682689 -0.877743 1.000000
v 3.234364 2.251349 0.500000
v -1.349396 -0.325021 0.500000
v 3.234364 2.251349 -0.500000
v -1.349396 -0.325021 -0.500000
v 2.512188 2.729327 -1.000000
v 4.282383 8.729553 -0.499999
v 4.282384 8.729553 0.500001
v 5.096656 8.434659 1.000001
v 5.910927 8.139766 0.500001
v 5.910927 8.139766 -0.499999
v 5.096656 8.434659 -0.999999
v 5.384903 12.597442 -0.499998
v 5.384904 12.597442 0.500002
v 6.120687 12.140686 1.000002
v 6.856467 11.683932 0.500002
v 6.856467 11.683932 -0.499998
v 6.120687 12.140686 -0.999998
v 8.058364 14.979032 -0.499998
v 8.058366 14.979032 0.500002
v 8.412570 14.188752 1.000002
v 8.766771 13.398475 0.500002
v 8.766771 13.398475 -0.499998
v 8.412570 14.188752 -0.999998
v 12.230659 14.928114 -0.174607
v 11.607532 15.418783 -0.499998
v 12.230657 14.928113 0.174610
v 11.607533 15.418782 0.500002
v 12.264891 14.627625 0.349220
v 11.704927 14.563830 1.000002
v 12.299124 14.327138 0.174611
v 11.802245 13.709683 0.500002
v 12.299125 14.327138 -0.174607
v 11.802245 13.709683 -0.499998
v 11.704927 14.563830 -0.999998
v 12.264890 14.627625 -0.349216
vt 0.542154 0.130000
vt 0.542154 0.130000
vt 0.542154 0.370000
vt 0.542154 0.370000
vt 0.750000 0.010000
vt 0.750000 0.010000
vt 0.750000 0.490000
vt 0.750000 0.490000
vt 0.957846 0.130000
vt 0.957846 0.130000
vt 0.542154 0.130000
vt 0.542154 0.370000
vt 0.957846 0.370000
vt 0.957846 0.370000
vt 0.750000 0.010000
vt 0.750000 0.010000
vt 0.542154 0.130000
vt 0.957846 0.370000
vt 0.957846 0.130000
vt 0.750000 0.490000
vt 0.542154 0.130000
vt 0.542154 0.370000
vt 0.542154 0.370000
vt 0.750000 0.490000
vt 0.957846 0.370000
vt 0.957846 0.130000
vt 0.750000 0.010000
vt 0.750000 0.010000
vt 0.542154 0.130000
vt 0.957846 0.370000
vt 0.957846 0.130000
vt 0.750000 0.490000
vt 0.542154 0.370000
vt 0.957846 0.370000
vt 0.957846 0.130000
vt 0.750000 0.490000
vt 0.677416 0.291906
vt 0.750000 0.333812
vt 0.677416 0.208094
vt 0.750000 0.166188
vt 0.822583 0.208094
vt 0.822583 0.291906
vn -0.7475 0.6643 0.0000
vn -0.3755 0.3331 0.8649
vn -0.3755 0.3331 -0.8649
vn 0.3760 -0.3325 0.8649
vn -0.9115 0.4114 0.0000
vn 0.7497 -0.6618 -0.0000
vn -0.6382 -0.7698 0.0000
vn 0.3760 -0.3325 -0.8649
vn -0.4891 0.1373 0.8614
vn 0.9104 -0.4138 0.0000
vn 0.4580 -0.2078 0.8643
vn -0.4583 0.2072 -0.8643
vn 0.4580 -0.2078 -0.8643
vn -0.4583 0.2072 0.8643
vn -0.6652 0.7467 0.0000
vn -0.4891 0.1373 -0.8614
vn 0.4908 -0.1333 -0.8610
vn 0.4908 -0.1333 0.8610
vn -0.9617 0.2741 0.0000
vn 0.9662 -0.2578 0.0000
vn -0.0603 0.5063 0.8602
vn 0.6679 -0.7442 0.0000
vn -0.3441 0.3857 0.8561
vn -0.3441 0.3857 -0.8561
vn 0.3448 -0.3851 -0.8560
vn 0.3448 -0.3851 0.8560
vn -0.1230 0.9924 0.0000
vn 0.1020 -0.9948 0.0000
vn -0.0603 0.5063 -0.8602
vn 0.0551 -0.5077 -0.8598
vn 0.0551 -0.5077 0.8598
vn 0.6615 0.4329 -0.6124
vn 0.6187 0.7857 0.0000
vn 0.6615 0.4329 0.6124
vn 0.7418 -0.2733 0.6124
vn 0.7791 -0.6269 0.0000
vn 0.7418 -0.2733 -0.6124
vn 0.9936 0.1132 0.0000
usemtl None
s off
f 9/1/1 4/2/1 2/3/1 11/4/1
f 7/5/2 6/6/2 4/2/2 9/1/2
f 11/4/3 2/3/3 12/7/3 1/8/3
f 5/9/4 8/10/4 6/6/4 7/5/4
f 4/2/5 14/11/5 13/12/5 2/3/5
f 3/13/6 10/14/6 8/10/6 5/9/6
f 1/8/7 3/13/7 5/9/7 7/5/7 9/1/7 11/4/7
f 1/8/8 12/7/8 10/14/8 3/13/8
f 15/15/9 21/16/9 20/17/9 14/11/9
f 10/14/10 17/18/10 16/19/10 8/10/10
f 8/10/11 16/19/11 15/15/11 6/6/11
f 2/3/12 13/12/12 18/20/12 12/7/12
f 12/7/13 18/20/13 17/18/13 10/14/13
f 6/6/14 15/15/14 14/11/14 4/2/14
f 20/17/15 26/21/15 25/22/15 19/23/15
f 13/12/16 19/23/16 24/24/16 18/20/16
f 18/20/17 24/24/17 23/25/17 17/18/17
f 16/19/18 22/26/18 21/16/18 15/15/18
f 14/11/19 20/17/19 19/23/19 13/12/19
f 17/18/20 23/25/20 22/26/20 16/19/20
f 27/27/21 36/28/21 34/29/21 26/21/21
f 23/25/22 29/30/22 28/31/22 22/26/22
f 21/16/23 27/27/23 26/21/23 20/17/23
f 19/23/24 25/22/24 30/32/24 24/24/24
f 24/24/25 30/32/25 29/30/25 23/25/25
f 22/26/26 28/31/26 27/27/26 21/16/26
f 26/21/27 34/29/27 32/33/27 25/22/27
f 29/30/28 40/34/28 38/35/28 28/31/28
f 25/22/29 32/33/29 41/36/29 30/32/29
f 30/32/30 41/36/30 40/34/30 29/30/30
f 28/31/31 38/35/31 36/28/31 27/27/31
f 32/33/32 31/37/32 42/38/32 41/36/32
f 34/29/33 33/39/33 31/37/33 32/33/33
f 36/28/34 35/40/34 33/39/34 34/29/34
f 38/35/35 37/41/35 35/40/35 36/28/35
f 40/34/36 39/42/36 37/41/36 38/35/36
f 41/36/37 42/38/37 39/42/37 40/34/37
f 42/38/38 31/37/38 33/39/38 35/40/38 37/41/38 39/42/38
